<?xml version="1.0" standalone="no"?>
<!DOCTYPE svg PUBLIC "-//W3C//DTD SVG 20010904//EN"
 "http://www.w3.org/TR/2001/REC-SVG-20010904/DTD/svg10.dtd">
<svg version="1.0" xmlns="http://www.w3.org/2000/svg"
 width="512.000000pt" height="512.000000pt" viewBox="0 0 512.000000 512.000000"
 preserveAspectRatio="xMidYMid meet">

<g transform="translate(0.000000,512.000000) scale(0.100000,-0.100000)"
fill="#000000" stroke="none">
<path d="M2470 3593 c-8 -2 -38 -39 -67 -81 -86 -128 -181 -241 -308 -367
-134 -135 -241 -223 -390 -323 -95 -63 -323 -185 -392 -209 -33 -11 -33 -11
-33 -80 0 -112 57 -333 86 -333 18 0 192 58 239 80 22 10 106 50 186 89 458
221 865 615 1108 1072 28 53 51 98 51 102 0 10 -131 36 -239 46 -102 11 -212
13 -241 4z"/>
<path d="M4225 3330 c-155 -33 -292 -92 -415 -178 -85 -59 -121 -93 -113 -106
10 -19 -11 5 -65 75 -52 67 -166 179 -181 179 -5 0 -12 -11 -15 -25 -14 -55
-116 -268 -183 -381 -241 -406 -610 -757 -1006 -956 -138 -69 -296 -134 -406
-167 -63 -19 -72 -25 -60 -36 24 -23 189 -102 282 -134 90 -31 264 -71 312
-71 35 0 233 95 359 172 314 191 601 470 812 789 71 108 198 347 212 402 8 30
11 27 42 -68 28 -87 33 -118 38 -232 6 -173 -16 -276 -92 -428 l-54 -106 72
-61 c263 -225 837 -316 961 -153 63 82 39 186 -93 400 -100 163 -111 189 -112
271 0 83 22 142 86 221 101 128 144 231 144 351 0 113 -42 185 -135 235 -58
31 -262 35 -390 7z"/>
</g>
</svg>
